#!OML:ASF F:\VICON\USERDATA\INSTALL\rory3\rory3.ASF
:FULLY-SPECIFIED
:DEGREES
1687
root 4.75346 17.5585 -5.85448 0.714383 -51.8646 2.71259
lowerback 7.35048 -0.941528 -0.319839
upperback 3.33534 -1.29957 3.71982
thorax -0.579508 -0.711366 4.12496
lowerneck -17.6488 -0.135759 -10.9258
upperneck 10.063 1.30738 8.01471
head 5.78676 0.850352 4.47974
rclavicle 7.63333e-014 -1.43125e-014
rhumerus -44.2151 -24.6183 -39.7172
rradius 31.7341
rwrist 5.18348
rhand -31.9319 -8.55867
rfingers 7.12502
rthumb -5.18296 -38.4753
lclavicle 7.63333e-014 -1.43125e-014
lhumerus -48.6003 11.725 75.7017
lradius 19.5187
lwrist -13.1701
lhand -8.75475 32.0155
lfingers 7.12502
lthumb 17.1825 61.2758
rfemur -9.19894 -0.261593 19.3603
rtibia 35.1244
rfoot -26.2098 -6.47654
rtoes -6.3109
lfemur -25.3243 3.97937 -15.4329
ltibia 20.8761
lfoot -4.78379 13.0027
ltoes -7.63661
1688
root 4.74516 17.559 -5.84416 0.818068 -51.6768 2.72529
lowerback 7.39217 -0.937996 -0.346209
upperback 3.26662 -1.29234 3.77694
thorax -0.672018 -0.706344 4.2011
lowerneck -17.8618 -0.156397 -10.8382
upperneck 10.0358 1.29349 7.9288
head 5.81558 0.84392 4.43858
rclavicle 6.2816e-014 -4.6118e-014
rhumerus -45.0551 -24.4112 -38.5666
rradius 31.7067
rwrist 4.7072
rhand -32.2113 -8.34366
rfingers 7.12502
rthumb -5.45274 -38.2535
lclavicle 6.2816e-014 -4.6118e-014
lhumerus -48.9702 11.7961 75.368
lradius 19.4778
lwrist -13.455
lhand -8.96312 31.9229
lfingers 7.12502
lthumb 16.9819 61.2006
rfemur -9.20842 -0.284673 19.3515
rtibia 35.0395
rfoot -26.3136 -6.52191
rtoes -5.92772
lfemur -25.4216 4.124 -15.5987
ltibia 20.9106
lfoot -4.62566 13.2997
ltoes -7.87339
1689
root 4.73309 17.5608 -5.82881 0.983728 -51.5743 2.62833
lowerback 7.3346 -0.928048 -0.291416
upperback 3.25634 -1.27587 3.83938
thorax -0.651668 -0.69838 4.23271
lowerneck -18.1858 -0.149721 -10.8056
upperneck 10.1278 1.32413 7.93813
head 5.89475 0.864621 4.44617
rclavicle -4.77083e-015 -3.18055e-015
rhumerus -45.7618 -24.1606 -37.5837
rradius 31.7012
rwrist 4.43247
rhand -32.3257 -8.20591
rfingers 7.12502
rthumb -5.5632 -38.1129
lclavicle -4.77083e-015 -3.18055e-015
lhumerus -49.2207 11.858 75.0732
lradius 19.445
lwrist -13.5961
lhand -8.84236 32.0995
lfingers 7.12502
lthumb 17.0982 61.3671
rfemur -9.18165 -0.250698 19.4149
rtibia 34.9528
rfoot -26.3602 -6.64676
rtoes -6.04172
lfemur -25.487 4.22323 -15.6082
ltibia 20.9014
lfoot -4.51152 13.6672
ltoes -7.02181
1690
root 4.71783 17.5627 -5.81036 0.972075 -51.4983 2.73202
lowerback 7.23008 -0.901608 -0.314379
upperback 3.27699 -1.24454 3.8236
thorax -0.574741 -0.683663 4.22399
lowerneck -18.3743 -0.174297 -10.8174
upperneck 10.0125 1.30446 8.02393
head 5.89017 0.866239 4.47502
rclavicle -5.56597e-015 1.27222e-014
rhumerus -46.4997 -23.9173 -36.7213
rradius 31.7228
rwrist 4.44232
rhand -32.6991 -8.0665
rfingers 7.12502
rthumb -5.92368 -37.9637
lclavicle -5.56597e-015 1.27222e-014
lhumerus -49.4125 11.908 74.7376
lradius 19.4514
lwrist -13.6848
lhand -8.67349 32.3364
lfingers 7.12502
lthumb 17.2607 61.5899
rfemur -9.10764 -0.20622 19.3421
rtibia 34.8511
rfoot -26.4307 -6.85574
rtoes -6.61345
lfemur -25.489 4.52154 -15.7937
ltibia 20.8369
lfoot -4.48838 13.8412
ltoes -6.46989
1691
root 4.70415 17.5685 -5.7948 0.888818 -51.3511 2.9881
lowerback 7.15051 -0.891371 -0.501903
upperback 3.28406 -1.24378 3.82512
thorax -0.519146 -0.685479 4.32994
lowerneck -18.5614 -0.236357 -10.7965
upperneck 9.80452 1.24869 7.96947
head 5.86063 0.841328 4.44681
rclavicle 1.35174e-014 0
rhumerus -47.1015 -23.2701 -36.1933
rradius 31.8932
rwrist 3.96243
rhand -32.8051 -8.08842
rfingers 7.12502
rthumb -6.02608 -37.9827
lclavicle 1.35174e-014 0
lhumerus -49.5818 12.0416 74.4351
lradius 19.5025
lwrist -13.6334
lhand -8.54095 32.239
lfingers 7.12502
lthumb 17.3883 61.4812
rfemur -9.07299 -0.26203 19.16
rtibia 34.7151
rfoot -26.4235 -6.9672
rtoes -6.88137
lfemur -25.565 4.86444 -16.1176
ltibia 20.7685
lfoot -4.39454 13.9947
ltoes -6.4629
1692
root 4.69525 17.573 -5.78251 0.91889 -51.1462 3.13321
lowerback 7.12485 -0.90578 -0.666945
upperback 3.27654 -1.27301 3.89689
thorax -0.504637 -0.702487 4.50043
lowerneck -18.9253 -0.257664 -10.8123
upperneck 9.82029 1.27578 7.86721
head 5.92248 0.85083 4.42407
rclavicle 5.96354e-014 2.54444e-014
rhumerus -47.5285 -22.6296 -35.7662
rradius 31.9801
rwrist 3.45009
rhand -32.578 -7.9156
rfingers 7.12502
rthumb -5.80678 -37.816
lclavicle 5.96354e-014 2.54444e-014
lhumerus -49.7253 12.4571 74.0345
lradius 19.5054
lwrist -13.8209
lhand -8.3321 32.1847
lfingers 7.12502
lthumb 17.5893 61.4091
rfemur -9.05787 -0.376815 19.0448
rtibia 34.5383
rfoot -26.4224 -6.90297
rtoes -6.55434
lfemur -25.7227 5.24323 -16.3961
ltibia 20.7242
lfoot -4.12751 14.0904
ltoes -6.69953
1693
root 4.68518 17.5767 -5.7687 1.10972 -50.9779 2.93013
lowerback 7.21295 -0.930032 -0.577571
upperback 3.29223 -1.29959 3.99107
thorax -0.534566 -0.71636 4.55224
lowerneck -19.2197 -0.278834 -10.9634
upperneck 9.80308 1.30811 7.93257
head 5.96 0.870777 4.47757
rclavicle -7.23576e-014 1.59028e-015
rhumerus -47.9406 -22.1701 -35.3625
rradius 32.0025
rwrist 3.37569
rhand -32.1989 -7.34443
rfingers 7.12502
rthumb -5.44077 -37.2546
lclavicle -7.23576e-014 1.59028e-015
lhumerus -49.8779 12.8244 73.6685
lradius 19.5623
lwrist -13.8843
lhand -8.57961 32.2447
lfingers 7.12502
lthumb 17.3511 61.4902
rfemur -8.89462 -0.430122 19.1799
rtibia 34.294
rfoot -26.4004 -6.91696
rtoes -6.32697
lfemur -25.7775 5.65429 -16.4145
ltibia 20.7072
lfoot -3.89802 14.0205
ltoes -7.14
1694
root 4.67044 17.5807 -5.75233 1.47409 -50.867 2.3773
lowerback 7.35834 -0.920998 -0.261985
upperback 3.35784 -1.2691 4.08925
thorax -0.554463 -0.700971 4.47626
lowerneck -19.4803 -0.347636 -11.0099
upperneck 9.68936 1.24532 8.02093
head 5.97132 0.851471 4.50989
rclavicle 7.15625e-014 1.11319e-014
rhumerus -48.3884 -21.6689 -35.1579
rradius 32.0464
rwrist 3.38565
rhand -31.5259 -6.98671
rfingers 7.12502
rthumb -4.79098 -36.9125
lclavicle 7.15625e-014 1.11319e-014
lhumerus -49.9662 13.1291 73.2767
lradius 19.6844
lwrist -13.6952
lhand -8.77745 32.1578
lfingers 7.12502
lthumb 17.1607 61.42
rfemur -8.59748 -0.302659 19.5806
rtibia 34.0089
rfoot -26.4241 -7.08377
rtoes -6.28933
lfemur -25.6947 5.73957 -16.0541
ltibia 20.7381
lfoot -3.85733 14.2481
ltoes -7.60821
1695
root 4.65564 17.5857 -5.73549 1.83818 -50.7604 1.92852
lowerback 7.40578 -0.894667 0.0306612
upperback 3.42275 -1.21793 4.11439
thorax -0.523465 -0.674623 4.3328
lowerneck -19.8334 -0.398501 -10.8101
upperneck 9.65822 1.16669 7.98319
head 6.0276 0.823674 4.46189
rclavicle 4.45278e-014 -3.81667e-014
rhumerus -48.8024 -21.0166 -35.3014
rradius 32.1233
rwrist 3.09555
rhand -30.9043 -7.2323
rfingers 7.12502
rthumb -4.19074 -37.1708
lclavicle 4.45278e-014 -3.81667e-014
lhumerus -49.9385 13.6189 72.6417
lradius 19.7394
lwrist -13.7234
lhand -8.57501 32.1965
lfingers 7.12502
lthumb 17.3555 61.4416
rfemur -8.37086 -0.123692 19.9173
rtibia 33.6956
rfoot -26.4624 -7.2529
rtoes -6.11603
lfemur -25.6723 5.30176 -15.6272
ltibia 20.806
lfoot -3.81732 14.9784
ltoes -7.31957
1696
root 4.64352 17.589 -5.71867 2.04424 -50.5928 1.80819
lowerback 7.36271 -0.871727 0.178953
upperback 3.44175 -1.17925 4.0411
thorax -0.487856 -0.6532 4.16771
lowerneck -19.9665 -0.438513 -10.5958
upperneck 9.47063 1.07572 7.97098
head 5.99942 0.791156 4.41202
rclavicle 9.54166e-015 2.22639e-014
rhumerus -49.3421 -20.6493 -35.3668
rradius 32.2347
rwrist 3.01405
rhand -30.3236 -7.33168
rfingers 7.12502
rthumb -3.62993 -37.2805
lclavicle 9.54166e-015 2.22639e-014
lhumerus -49.8331 14.0788 71.9621
lradius 19.7489
lwrist -13.7274
lhand -8.33132 32.1711
lfingers 7.12502
lthumb 17.59 61.3954
rfemur -8.24541 -0.0668309 20.0025
rtibia 33.3774
rfoot -26.4916 -7.27297
rtoes -5.51632
lfemur -25.7975 5.0153 -15.5074
ltibia 20.899
lfoot -3.75025 15.4028
ltoes -6.56357
1697
root 4.6298 17.5953 -5.6963 2.18377 -50.4227 1.85495
lowerback 7.22283 -0.853161 0.208079
upperback 3.46029 -1.15595 3.94666
thorax -0.39587 -0.640571 4.04722
lowerneck -20.1546 -0.481989 -10.3163
upperneck 9.28083 0.973958 7.91268
head 5.98063 0.752463 4.33594
rclavicle 7.23576e-014 4.13472e-014
rhumerus -49.8116 -20.4829 -35.4127
rradius 32.2467
rwrist 3.2021
rhand -29.9007 -7.00293
rfingers 7.12502
rthumb -3.22157 -36.9583
lclavicle 7.23576e-014 4.13472e-014
lhumerus -49.6825 14.4855 71.3982
lradius 19.7882
lwrist -13.6101
lhand -8.38728 32.2333
lfingers 7.12502
lthumb 17.5362 61.4624
rfemur -8.19421 -0.148805 19.9407
rtibia 33.1204
rfoot -26.4643 -7.33205
rtoes -5.33231
lfemur -25.9599 4.99325 -15.6103
ltibia 20.9569
lfoot -3.65623 15.4678
ltoes -6.44665
1698
root 4.61495 17.6005 -5.66757 2.53527 -50.3338 1.63186
lowerback 7.04109 -0.824355 0.375272
upperback 3.47688 -1.1126 3.98334
thorax -0.283579 -0.618525 3.98335
lowerneck -20.408 -0.529747 -10.2122
upperneck 9.19487 0.923674 7.80388
head 5.99926 0.727505 4.27974
rclavicle -4.05521e-014 3.18055e-015
rhumerus -49.9994 -20.0399 -35.6057
rradius 32.1361
rwrist 3.18017
rhand -29.602 -6.86319
rfingers 7.12502
rthumb -2.93313 -36.8228
lclavicle -4.05521e-014 3.18055e-015
lhumerus -49.7042 15.0205 70.9819
lradius 20.0236
lwrist -13.5261
lhand -8.82716 32.4283
lfingers 7.12502
lthumb 17.1128 61.6946
rfemur -8.16828 -0.080673 20.052
rtibia 32.9541
rfoot -26.578 -7.31385
rtoes -4.77345
lfemur -26.0507 4.97064 -15.5108
ltibia 20.9444
lfoot -3.55109 15.5206
ltoes -6.22463
